<?xml version="1.0" encoding="utf-8"?>
<!-- Generator: Adobe Illustrator 16.0.0, SVG Export Plug-In . SVG Version: 6.00 Build 0)  -->
<!DOCTYPE svg PUBLIC "-//W3C//DTD SVG 1.1//EN" "http://www.w3.org/Graphics/SVG/1.1/DTD/svg11.dtd">
<svg version="1.1" id="Capa_1" xmlns="http://www.w3.org/2000/svg" xmlns:xlink="http://www.w3.org/1999/xlink" x="0px" y="0px"
	 width="48.666px" height="48.666px" viewBox="0 0 48.666 48.666" enable-background="new 0 0 48.666 48.666" xml:space="preserve">
<path fill="#FFFFFF" d="M24.209,0C10.839,0,0,10.839,0,24.208c0,13.371,10.839,24.209,24.208,24.209
	c13.371,0,24.209-10.839,24.209-24.209C48.418,10.839,37.579,0,24.209,0z M38.586,38.586c-1.869,1.869-4.044,3.335-6.464,4.359
	c-0.615,0.259-1.239,0.489-1.873,0.685v-3.628c0-1.908-0.654-3.311-1.962-4.208c0.819-0.079,1.572-0.189,2.258-0.331
	c0.686-0.142,1.411-0.347,2.175-0.614c0.765-0.268,1.45-0.587,2.057-0.958c0.607-0.37,1.19-0.851,1.75-1.442
	c0.559-0.59,1.028-1.261,1.406-2.009c0.378-0.749,0.678-1.648,0.899-2.695c0.22-1.048,0.331-2.203,0.331-3.463
	c0-2.443-0.796-4.524-2.388-6.242c0.726-1.891,0.646-3.948-0.235-6.17l-0.592-0.071c-0.409-0.047-1.146,0.126-2.21,0.52
	c-1.064,0.395-2.258,1.04-3.581,1.938c-1.875-0.52-3.822-0.78-5.84-0.78c-2.034,0-3.972,0.26-5.816,0.78
	c-0.835-0.567-1.627-1.037-2.375-1.407c-0.75-0.37-1.348-0.622-1.797-0.756c-0.449-0.134-0.866-0.218-1.253-0.25
	c-0.387-0.031-0.634-0.039-0.745-0.023c-0.11,0.017-0.189,0.032-0.236,0.048c-0.884,2.238-0.962,4.294-0.237,6.17
	c-1.592,1.718-2.388,3.799-2.388,6.242c0,1.261,0.111,2.416,0.332,3.463c0.22,1.047,0.52,1.947,0.898,2.695
	c0.379,0.748,0.847,1.418,1.407,2.009c0.56,0.591,1.142,1.073,1.75,1.442c0.606,0.371,1.292,0.69,2.056,0.958
	c0.764,0.267,1.49,0.473,2.175,0.614c0.685,0.142,1.438,0.252,2.258,0.331c-1.293,0.882-1.939,2.285-1.939,4.208v3.699
	c-0.714-0.212-1.417-0.463-2.108-0.756c-2.421-1.024-4.596-2.49-6.464-4.359s-3.335-4.044-4.359-6.464
	c-1.059-2.503-1.596-5.167-1.596-7.913s0.537-5.408,1.597-7.912c1.023-2.421,2.489-4.596,4.358-6.465
	c1.869-1.868,4.043-3.334,6.464-4.358c2.503-1.059,5.166-1.596,7.912-1.596c2.748,0,5.41,0.537,7.913,1.596
	c2.421,1.024,4.596,2.49,6.464,4.358c1.869,1.869,3.335,4.043,4.358,6.465c1.06,2.504,1.597,5.166,1.597,7.912
	s-0.537,5.41-1.597,7.913C41.921,34.542,40.455,36.717,38.586,38.586z"/>
</svg>
